<?xml version="1.0" standalone="no"?><!DOCTYPE svg PUBLIC "-//W3C//DTD SVG 1.1//EN" "http://www.w3.org/Graphics/SVG/1.1/DTD/svg11.dtd"><svg t="1642011360290" class="icon" viewBox="0 0 1044 1024" version="1.1" xmlns="http://www.w3.org/2000/svg" p-id="5355" xmlns:xlink="http://www.w3.org/1999/xlink" width="203.90625" height="200"><defs><style type="text/css"></style></defs><path d="M263.577907 184.44288l1.42336 1.41312a30.464 30.464 0 0 0 19.6608 8.92928l2.05824 0.07168h40.27392l1.77152-0.02048a30.4128 30.4128 0 0 0 18.57536-7.00416l1.37216-1.25952 0.512-0.54272a40.96 40.96 0 0 1 57.71264-1.5872l1.42336 1.41312a30.464 30.464 0 0 0 19.6608 8.92928l2.05824 0.07168h40.27392l1.77152-0.02048a30.4128 30.4128 0 0 0 18.57536-7.00416l1.37216-1.25952 0.512-0.54272a40.96 40.96 0 0 1 57.71264-1.5872l1.42336 1.41312a30.464 30.464 0 0 0 19.6608 8.92928l2.05824 0.07168h40.27392l1.77152-0.02048a30.4128 30.4128 0 0 0 18.57536-7.00416l1.37216-1.25952 0.512-0.54272a40.96 40.96 0 0 1 57.71264-1.5872l1.42336 1.41312a30.464 30.464 0 0 0 19.6608 8.92928l2.05824 0.07168h40.27392l1.77152-0.02048a30.4128 30.4128 0 0 0 18.57536-7.00416l1.37216-1.25952 0.512-0.54272a40.96 40.96 0 0 1 57.71264-1.5872l1.42336 1.41312a30.464 30.464 0 0 0 19.6608 8.92928l2.05824 0.07168h40.96a30.72 30.72 0 0 0 8.9088-1.30048l2.10944-0.7168a40.96 40.96 0 0 1 49.1008 16.00512C1015.286067 292.52608 1044.480307 390.06208 1044.480307 491.81696c0 57.33376-9.25696 113.4592-27.19744 166.73792a40.96 40.96 0 0 1-39.936 27.87328l-2.94912-0.04096-1.59744-0.01024c-118.76352 0-215.04 96.27648-215.04 215.04 0 8.47872 0.49152 16.896 1.45408 25.20064a40.96 40.96 0 0 1-23.95136 42.12736A520.22272 520.22272 0 0 1 522.240307 1014.0672a520.4992 520.4992 0 0 1-213.02272-45.29152 40.96 40.96 0 0 1-23.9616-42.15808c0.9728-8.2944 1.46432-16.70144 1.46432-25.1904 0-117.5552-94.34112-213.0944-211.456-215.00928L71.680307 686.37696c-1.5872 0-3.1744 0.02048-4.7616 0.0512a40.96 40.96 0 0 1-39.70048-27.86304A521.09312 521.09312 0 0 1 0.000307 491.81696c0-101.75488 29.19424-199.29088 83.24096-282.97216a40.96 40.96 0 0 1 47.09376-16.73216l2.01728 0.7168c2.7648 1.06496 5.6832 1.72032 8.71424 1.9456l2.29376 0.08192h40.27392l1.77152-0.02048a30.4128 30.4128 0 0 0 18.57536-7.00416l1.37216-1.25952 0.512-0.54272a40.96 40.96 0 0 1 57.71264-1.5872zM808.960307 214.28224l-0.512 0.54272a71.45472 71.45472 0 0 1-45.1072 20.77696l-3.11296 0.17408-2.46784 0.04096h-40.96a71.424 71.424 0 0 1-48.59904-18.98496l-2.08896-2.00704-0.512-0.54272-0.512 0.54272a71.45472 71.45472 0 0 1-45.1072 20.77696l-3.11296 0.17408-2.46784 0.04096h-40.96a71.424 71.424 0 0 1-48.59904-18.98496l-2.08896-2.00704-0.512-0.54272-0.512 0.54272a71.45472 71.45472 0 0 1-45.1072 20.77696l-3.11296 0.17408-2.46784 0.04096h-40.96a71.424 71.424 0 0 1-48.59904-18.98496l-2.08896-2.00704-0.512-0.54272-0.512 0.54272a71.45472 71.45472 0 0 1-45.1072 20.77696l-3.11296 0.17408-2.46784 0.04096h-40.96a71.424 71.424 0 0 1-48.59904-18.98496l-2.08896-2.00704-0.512-0.54272-0.512 0.54272a71.45472 71.45472 0 0 1-45.1072 20.77696l-3.11296 0.17408-2.46784 0.04096h-40.96a71.4752 71.4752 0 0 1-25.71264-4.75136A479.0272 479.0272 0 0 0 40.960307 491.81696c0 45.32224 6.26688 89.1904 17.99168 130.7648 0.41984 1.50528 1.10592 3.7888 2.048 6.81984l0.58368 1.92512a20.48 20.48 0 0 0 19.02592 14.40768c5.48864 0.14336 9.56416 0.32768 12.22656 0.54272C224.317747 657.02912 327.680307 767.16032 327.680307 901.4272c0 3.35872-0.14336 7.51616-0.43008 12.47232l-0.18432 3.072a20.48 20.48 0 0 0 12.56448 20.23424c3.50208 1.45408 6.4512 2.65216 8.84736 3.584a479.78496 479.78496 0 0 0 166.54336 32.256l7.2192 0.06144 7.2192-0.0512a479.7952 479.7952 0 0 0 157.12256-28.74368c4.06528-1.4848 9.216-3.49184 15.4624-6.0416l2.73408-1.1264a20.48 20.48 0 0 0 12.63616-20.25472 248.32 248.32 0 0 1-0.6144-15.4624c0-134.57408 103.8336-244.8896 235.74528-255.21152 2.12992-0.16384 5.20192-0.3072 9.23648-0.41984l2.08896-0.06144a20.48 20.48 0 0 0 19.0464-14.40768c1.0752-3.45088 1.8432-5.95968 2.28352-7.5264A481.59744 481.59744 0 0 0 1003.520307 491.81696c0-96.1024-28.16-185.62048-76.6976-260.75136a71.3728 71.3728 0 0 1-22.3232 4.66944l-3.3792 0.08192h-40.96a71.424 71.424 0 0 1-48.59904-18.98496l-2.08896-2.00704-0.512-0.54272z m-481.28 122.88a20.48 20.48 0 0 1 20.48 20.48v30.72a20.48 20.48 0 1 1-40.96 0v-30.72a20.48 20.48 0 0 1 20.48-20.48z m389.12 0a20.48 20.48 0 0 1 20.48 20.48v30.72a20.48 20.48 0 1 1-40.96 0v-30.72a20.48 20.48 0 0 1 20.48-20.48z" fill="#f0f710" p-id="5356"></path><path d="M266.240307 408.84224c33.93536 0 61.44 13.75232 61.44 30.72s-27.50464 30.72-61.44 30.72-61.44-13.75232-61.44-30.72 27.50464-30.72 61.44-30.72z m512 0c33.93536 0 61.44 13.75232 61.44 30.72s-27.50464 30.72-61.44 30.72-61.44-13.75232-61.44-30.72 27.50464-30.72 61.44-30.72z" fill="#f0f710" p-id="5357"></path><path d="M593.920307 367.88224a30.72 30.72 0 0 1 30.22848 25.22112l7.31136 40.21248a92.16 92.16 0 0 1-90.6752 108.6464h-37.08928a92.16 92.16 0 0 1-90.6752-108.6464l7.31136-40.21248A30.72 30.72 0 0 1 450.560307 367.88224z m-12.82048 30.72H463.380787a15.36 15.36 0 0 0-15.11424 12.61568l-5.0176 27.5968a61.44 61.44 0 0 0 60.44672 72.42752h37.08928a61.44 61.44 0 0 0 60.44672-72.42752l-5.0176-27.5968a15.36 15.36 0 0 0-15.11424-12.61568zM184.320307 9.48224c19.79392 0 37.71392 8.01792 50.688 20.992l0.512 0.53248 0.512-0.53248A71.44448 71.44448 0 0 1 284.262707 9.5232L286.720307 9.48224h40.96c19.79392 0 37.71392 8.01792 50.688 20.992l0.512 0.53248 0.512-0.53248A71.44448 71.44448 0 0 1 427.622707 9.5232L430.080307 9.48224h40.96c19.79392 0 37.71392 8.01792 50.688 20.992l0.512 0.53248 0.512-0.53248A71.44448 71.44448 0 0 1 570.982707 9.5232L573.440307 9.48224h40.96c19.79392 0 37.71392 8.01792 50.688 20.992l0.512 0.53248 0.512-0.53248A71.44448 71.44448 0 0 1 714.342707 9.5232L716.800307 9.48224h40.96c19.79392 0 37.71392 8.01792 50.688 20.992l0.512 0.53248 0.512-0.53248A71.44448 71.44448 0 0 1 857.702707 9.5232L860.160307 9.48224h40.96a71.68 71.68 0 0 1 71.68 71.68v81.92a71.68 71.68 0 0 1-71.68 71.68h-40.96a71.45472 71.45472 0 0 1-50.688-20.992l-0.512-0.54272-0.512 0.54272a71.44448 71.44448 0 0 1-48.2304 20.95104l-2.4576 0.04096h-40.96a71.45472 71.45472 0 0 1-50.688-20.992l-0.512-0.54272-0.512 0.54272a71.44448 71.44448 0 0 1-48.2304 20.95104l-2.4576 0.04096h-40.96a71.45472 71.45472 0 0 1-50.688-20.992l-0.512-0.54272-0.512 0.54272a71.44448 71.44448 0 0 1-48.2304 20.95104l-2.4576 0.04096h-40.96a71.45472 71.45472 0 0 1-50.688-20.992l-0.512-0.54272-0.512 0.54272a71.44448 71.44448 0 0 1-48.2304 20.95104l-2.4576 0.04096h-40.96a71.45472 71.45472 0 0 1-50.688-20.992l-0.512-0.54272-0.512 0.54272a71.44448 71.44448 0 0 1-48.2304 20.95104l-2.4576 0.04096h-40.96a71.68 71.68 0 0 1-71.68-71.68v-81.92a71.68 71.68 0 0 1 71.68-71.68z m0 40.96h-40.96a30.72 30.72 0 0 0-30.72 30.72v81.92a30.72 30.72 0 0 0 30.72 30.72h40.96a30.72 30.72 0 0 0 30.72-30.72l0.06144-1.78176c1.7408-25.50784 40.89856-24.91392 40.89856 1.78176l0.0512 1.80224A30.72 30.72 0 0 0 286.720307 193.80224h40.96a30.72 30.72 0 0 0 30.72-30.72l0.06144-1.78176c1.7408-25.50784 40.89856-24.91392 40.89856 1.78176l0.0512 1.80224A30.72 30.72 0 0 0 430.080307 193.80224h40.96a30.72 30.72 0 0 0 30.72-30.72l0.06144-1.78176c1.7408-25.50784 40.89856-24.91392 40.89856 1.78176l0.0512 1.80224A30.72 30.72 0 0 0 573.440307 193.80224h40.96a30.72 30.72 0 0 0 30.72-30.72l0.06144-1.78176c1.7408-25.50784 40.89856-24.91392 40.89856 1.78176l0.0512 1.80224A30.72 30.72 0 0 0 716.800307 193.80224h40.96a30.72 30.72 0 0 0 30.72-30.72l0.06144-1.78176c1.7408-25.50784 40.89856-24.91392 40.89856 1.78176l0.0512 1.80224A30.72 30.72 0 0 0 860.160307 193.80224h40.96a30.72 30.72 0 0 0 30.72-30.72v-81.92a30.72 30.72 0 0 0-30.72-30.72h-40.96a30.72 30.72 0 0 0-30.72 30.72l-0.06144 1.78176C827.638067 108.4416 788.480307 107.85792 788.480307 81.16224l-0.0512-1.80224A30.72 30.72 0 0 0 757.760307 50.44224h-40.96a30.72 30.72 0 0 0-30.72 30.72l-0.06144 1.78176C684.278067 108.4416 645.120307 107.85792 645.120307 81.16224l-0.0512-1.80224A30.72 30.72 0 0 0 614.400307 50.44224h-40.96a30.72 30.72 0 0 0-30.72 30.72l-0.06144 1.78176C540.918067 108.4416 501.760307 107.85792 501.760307 81.16224l-0.0512-1.80224A30.72 30.72 0 0 0 471.040307 50.44224h-40.96a30.72 30.72 0 0 0-30.72 30.72l-0.06144 1.78176C397.558067 108.4416 358.400307 107.85792 358.400307 81.16224l-0.0512-1.80224A30.72 30.72 0 0 0 327.680307 50.44224h-40.96a30.72 30.72 0 0 0-30.72 30.72l-0.06144 1.78176C254.198067 108.4416 215.040307 107.85792 215.040307 81.16224l-0.0512-1.80224A30.72 30.72 0 0 0 184.320307 50.44224z" fill="#f0f710" p-id="5358"></path></svg>